<svg viewBox="0 0 14 14" xmlns="http://www.w3.org/2000/svg" xmlns:xlink="http://www.w3.org/1999/xlink" width="14.000000" height="14.000000" fill="none" customFrame="#000000">
	<defs>
		<clipPath id="clipPath_19">
			<rect width="14.000000" height="14.000000" x="0.000000" y="0.000000" fill="rgb(255,255,255)" />
		</clipPath>
	</defs>
	<g id="H3">
		<g id="heading-3 1" clip-path="url(#clipPath_19)" customFrame="url(#clipPath_19)">
			<rect id="heading-3 1" width="14.000000" height="14.000000" x="0.000000" y="0.000000" />
			<path id="矢量 5126" d="M2 7L7 7" stroke="rgb(0,0,0)" stroke-linecap="round" stroke-linejoin="round" stroke-width="1.166667" />
			<path id="矢量 5127" d="M2 11L2 3" stroke="rgb(0,0,0)" stroke-linecap="round" stroke-linejoin="round" stroke-width="1.166667" />
			<path id="矢量 5128" d="M7 11L7 3" stroke="rgb(0,0,0)" stroke-linecap="round" stroke-linejoin="round" stroke-width="1.166667" />
			<path id="矢量 5129" d="M11 6.20629C11.9714 5.6938 13 6.20629 13 6.97502C13 7.15494 12.9472 7.3317 12.8469 7.48751C12.7466 7.64333 12.6023 7.77272 12.4286 7.86268C12.2548 7.95264 12.0578 8 11.8571 8" fill-rule="nonzero" stroke="rgb(0,0,0)" stroke-linecap="round" stroke-linejoin="round" stroke-width="1.166667" />
			<path id="矢量 5130" d="M10 10.5123C11.5 11.589 13 10.7276 13 9.4356C13 9.1836 12.9307 8.93604 12.799 8.7178C12.6674 8.49956 12.478 8.31833 12.25 8.19233C12.022 8.06633 11.7633 8 11.5 8" fill-rule="nonzero" stroke="rgb(0,0,0)" stroke-linecap="round" stroke-linejoin="round" stroke-width="1.166667" />
		</g>
	</g>
</svg>
