<svg viewBox="0 0 14 14" xmlns="http://www.w3.org/2000/svg" xmlns:xlink="http://www.w3.org/1999/xlink" width="14.000000" height="14.000000" fill="none">
	<rect id="lightbulb 1" width="14.000000" height="14.000000" x="0.000000" y="0.000000" />
	<g id="组合 96">
		<path id="矢量 4693(边框)" d="M9.48884 6.39766C8.87376 7.01274 8.50159 7.64337 8.37236 8.28954C8.3283 8.50983 8.41429 8.72115 8.57919 8.84682C8.64601 8.89905 8.7243 8.93414 8.81406 8.9521L8.81588 8.95246C8.90499 8.97002 8.99016 8.96762 9.07137 8.94525C9.19099 8.91389 9.29641 8.8436 9.37136 8.74525C9.42305 8.67911 9.45796 8.60173 9.47607 8.51311L9.47662 8.51039C9.56066 8.09017 9.82691 7.65463 10.2753 7.20376C10.5913 6.91709 10.8414 6.59623 11.0257 6.2412C11.2836 5.74438 11.4126 5.18064 11.4126 4.54997C11.4126 4.07201 11.3423 3.61688 11.2019 3.18456C11.0614 2.75223 10.8507 2.34272 10.5697 1.95604C10.2888 1.56935 9.96444 1.24241 9.59667 0.975218C9.22892 0.708033 8.81776 0.500593 8.3632 0.352896C7.90863 0.205196 7.45405 0.131346 6.99948 0.131348C6.54491 0.131349 6.09034 0.205198 5.63578 0.352896C5.18121 0.500595 4.77004 0.70804 4.40229 0.975231C4.03453 1.24242 3.71019 1.56936 3.42925 1.95604C3.14831 2.34272 2.9376 2.75222 2.79713 3.18454C2.65666 3.61686 2.58643 4.072 2.58643 4.54997C2.58643 4.96942 2.65111 5.36655 2.78048 5.74136C2.96294 6.26996 3.27406 6.75416 3.71384 7.19395C4.1682 7.6483 4.43771 8.08712 4.52236 8.51039C4.52284 8.51277 4.52332 8.51514 4.52382 8.51751C4.54218 8.6043 4.57679 8.68021 4.62763 8.74525C4.70258 8.84361 4.808 8.91389 4.92761 8.94525C5.00938 8.96777 5.09514 8.97005 5.18491 8.9521C5.18729 8.95162 5.18967 8.95113 5.19203 8.95063C5.27882 8.93227 5.35474 8.89767 5.41978 8.84682C5.51815 8.77186 5.58843 8.66643 5.61979 8.54679C5.64206 8.46587 5.64452 8.38102 5.62715 8.29226L5.62662 8.28954C5.49738 7.64337 5.12522 7.01274 4.51013 6.39766C4.17987 6.06739 3.95217 5.70465 3.82704 5.30943C3.75071 5.06836 3.71255 4.81521 3.71255 4.54997C3.71255 4.19397 3.76486 3.85497 3.86949 3.53297C3.97411 3.21097 4.13105 2.90596 4.3403 2.61796C4.54955 2.32995 4.79113 2.08644 5.06504 1.88743C5.33895 1.68842 5.6452 1.53392 5.98377 1.42391C6.32234 1.3139 6.66091 1.25889 6.99948 1.25889C7.33805 1.25889 7.67663 1.31389 8.01521 1.42391C8.35378 1.53391 8.66002 1.68842 8.93393 1.88742C9.20784 2.08643 9.44943 2.32994 9.65868 2.61795C9.86793 2.90597 10.0249 3.21098 10.1295 3.53299C10.2341 3.85499 10.2864 4.19398 10.2864 4.54997C10.2864 5.01415 10.188 5.42376 9.99115 5.77879C9.86886 5.99935 9.70858 6.19885 9.51032 6.37728C9.50675 6.38049 9.50322 6.38375 9.49974 6.38705C9.49606 6.39054 9.49243 6.39407 9.48884 6.39766Z" fill="rgb(0,0,0)" fill-rule="evenodd" />
		<path id="矢量 4694(边框)" d="M9.09959 11.4131L5.24959 11.4131C5.15806 11.4131 5.07443 11.394 4.99868 11.3559C4.8875 11.3017 4.79788 11.2121 4.74367 11.1009C4.70557 11.0252 4.68652 10.9415 4.68652 10.85C4.68652 10.7585 4.70557 10.6748 4.74367 10.5991C4.79788 10.4879 4.8875 10.3983 4.99868 10.3441C5.07443 10.306 5.15806 10.2869 5.24959 10.2869L9.09959 10.2869L9.10282 10.2869C9.19308 10.2874 9.27564 10.3064 9.35049 10.3441C9.53687 10.435 9.66265 10.6253 9.66265 10.85L9.66264 10.8528C9.66226 10.9432 9.64322 11.0259 9.6055 11.1009C9.55129 11.2121 9.46167 11.3017 9.35049 11.3559C9.27509 11.3938 9.19188 11.4129 9.10086 11.4131L9.09959 11.4131Z" fill="rgb(0,0,0)" fill-rule="evenodd" />
		<path id="矢量 4695(边框)" d="M8.39968 12.7369L5.59968 12.7369C5.50816 12.7369 5.42452 12.756 5.34878 12.7941C5.2376 12.8483 5.14798 12.9379 5.09376 13.0491C5.05567 13.1248 5.03662 13.2085 5.03662 13.3C5.03662 13.3915 5.05567 13.4752 5.09376 13.5509C5.14798 13.6621 5.2376 13.7517 5.34878 13.8059C5.42452 13.844 5.50816 13.8631 5.59968 13.8631L8.39968 13.8631C8.49121 13.8631 8.57485 13.844 8.65059 13.8059C8.76177 13.7517 8.85139 13.6621 8.9056 13.5509C8.94331 13.4759 8.96236 13.3932 8.96274 13.3028L8.96275 13.3C8.96275 13.0753 8.83697 12.885 8.65059 12.7941C8.57485 12.756 8.49121 12.7369 8.39968 12.7369Z" fill="rgb(0,0,0)" fill-rule="evenodd" />
	</g>
</svg>
